<?xml version="1.0"?>
<svg width="300" height="399" xmlns="http://www.w3.org/2000/svg" xmlns:svg="http://www.w3.org/2000/svg">
 <g class="layer">
  <title>Layer 1</title>
  <path d="m257.995972,150.676238c0,-1.709517 -1.724025,-3.41834 -4.142789,-4.102691l-28.98637,-10.593036c-4.827151,-2.051698 -10.349019,0.341487 -10.349019,3.765346l0,120.425624c0,1.709506 1.724025,3.76051 3.448061,4.444177l29.676262,10.59373c4.487041,1.709506 10.353855,-0.683668 10.353855,-4.449025l0,-120.084126zm-54.176285,-42.080636c0,-1.71421 -1.724025,-3.42366 -4.142095,-4.107394l-28.982228,-10.593664c-4.831976,-2.051345 -10.353161,0.341906 -10.353161,3.765566l0,73.206766c0,1.709517 1.724025,3.761204 3.448061,4.449708l29.676262,10.59373c4.487041,1.713659 10.353161,-0.684362 10.353161,-4.444872l0,-72.86984zm0,131.727412c0,-1.709517 -1.724025,-3.419023 -4.142095,-4.102691l-28.982228,-10.59373c-4.831976,-2.051687 -10.353161,0.341487 -10.353161,3.765357l0,73.206975c0,1.709506 1.724025,3.76051 3.448061,4.444872l29.676262,10.593036c4.487041,1.714353 10.353161,-0.683668 10.353161,-4.449025l0,-72.864794zm-54.175591,14.715082c0,-1.709506 -1.724036,-3.423165 -4.142789,-4.107527l-28.9816,-10.593036c-4.856255,-2.051698 -10.353447,0.341487 -10.353447,3.765357l0,78.007842c0,1.709517 1.723893,3.765357 3.447852,4.449025l29.67613,10.59373c4.48703,1.714353 10.353855,-0.683668 10.353855,-4.444189l0,-77.671202zm0,-177.582933c0,-1.709451 -1.724036,-3.41889 -4.142789,-4.102624l-28.9816,-10.593675c-4.856255,-2.051312 -10.353447,0.341884 -10.353447,3.765555l0,78.007798c0,1.714353 1.723893,3.765357 3.447852,4.449025l29.67613,10.59373c4.48703,1.709517 10.353855,-0.683668 10.353855,-4.449025l0,-77.670783zm-54.166403,3.081755c0,-1.709451 -1.723959,-3.42366 -4.14237,-4.10746l-28.981886,-10.59362c-4.831921,-2.051323 -10.353436,0.341884 -10.353436,3.765588l0,249.76428c0,1.709506 1.723981,3.761204 3.452787,4.444872l29.67147,10.593719c4.487107,1.708823 10.353436,-0.684351 10.353436,-4.449708l0,-249.41767z" fill="#0E353D" id="svg_9"/>
 </g>

</svg>